HIERARCHY
ROOT Hips
{
  OFFSET -192.209 103.909 61.9613
  CHANNELS 6 Xposition Yposition Zposition Zrotation Xrotation Yrotation
  JOINT ToSpine
  {
    OFFSET -2.69724 7.43032 -0.144315
    CHANNELS 3 Zrotation Xrotation Yrotation
    JOINT Spine
    {
      OFFSET -0.0310711 10.7595 1.96963
      CHANNELS 3 Zrotation Xrotation Yrotation
      JOINT Spine1
      {
        OFFSET 19.9056 3.91189 0.764692
        CHANNELS 3 Zrotation Xrotation Yrotation
        JOINT Neck
        {
          OFFSET 25.9749 7.03908 -0.130764
          CHANNELS 3 Zrotation Xrotation Yrotation
          JOINT Head
          {
            OFFSET 9.52751 0.295786 -0.907742
            CHANNELS 3 Zrotation Xrotation Yrotation
            End Site
            {
              OFFSET 16.4037 0.713936 2.7358
            }
          }
        }
        JOINT LeftShoulder
        {
          OFFSET 17.7449 4.33886 11.7777
          CHANNELS 3 Zrotation Xrotation Yrotation
          JOINT LeftArm
          {
            OFFSET 0.911315 1.27913 9.80584
            CHANNELS 3 Zrotation Xrotation Yrotation
            JOINT LeftForeArm
            {
              OFFSET 28.6126 1.18197 -3.53199
              CHANNELS 3 Zrotation Xrotation Yrotation
              JOINT LeftHand
              {
                OFFSET 27.5088 0.0218783 0.327423
                CHANNELS 3 Zrotation Xrotation Yrotation
                End Site
                {
                  OFFSET 18.6038 -0.000155887 0.382096
                }
              }
            }
          }
        }
        JOINT RightShoulder
        {
          OFFSET 17.1009 2.89543 -12.2328
          CHANNELS 3 Zrotation Xrotation Yrotation
          JOINT RightArm
          {
            OFFSET 1.4228 0.178766 -10.211
            CHANNELS 3 Zrotation Xrotation Yrotation
            JOINT RightForeArm
            {
              OFFSET 28.733 1.87905 2.64907
              CHANNELS 3 Zrotation Xrotation Yrotation
              JOINT RightHand
              {
                OFFSET 27.4588 0.290562 -0.101845
                CHANNELS 3 Zrotation Xrotation Yrotation
                End Site
                {
                  OFFSET 17.8396 -0.255518 -0.000602873
                }
              }
            }
          }
        }
      }
    }
  }
  JOINT LeftUpLeg
  {
    OFFSET -5.61296 -2.22332 -10.2353
    CHANNELS 3 Zrotation Xrotation Yrotation
    JOINT LeftLeg
    {
      OFFSET 2.56703 -44.7417 -7.93097
      CHANNELS 3 Zrotation Xrotation Yrotation
      JOINT LeftFoot
      {
        OFFSET 3.16933 -46.5642 -3.96578
        CHANNELS 3 Zrotation Xrotation Yrotation
        JOINT LeftToeBase
        {
          OFFSET 0.346054 -6.02161 12.8035
          CHANNELS 3 Zrotation Xrotation Yrotation
          End Site
          {
            OFFSET 0.134235 -1.35082 5.13018
          }
        }
      }
    }
  }
  JOINT RightUpLeg
  {
    OFFSET -5.7928 -1.72406 10.6446
    CHANNELS 3 Zrotation Xrotation Yrotation
    JOINT RightLeg
    {
      OFFSET -2.57161 -44.7178 -7.85259
      CHANNELS 3 Zrotation Xrotation Yrotation
      JOINT RightFoot
      {
        OFFSET -3.10148 -46.5936 -4.03391
        CHANNELS 3 Zrotation Xrotation Yrotation
        JOINT RightToeBase
        {
          OFFSET -0.0828122 -6.13587 12.8035
          CHANNELS 3 Zrotation Xrotation Yrotation
          End Site
          {
            OFFSET -0.131328 -1.35082 5.13018
          }
        }
      }
    }
  }
}
MOTION
Frames:	20
Frame Time:	0.0333333
-2.98037 105.745 54.3894 -0.114837 -78.2343 -87.2449 -70.1915 0 88.8779 79.979 71.7028 8.84235 4.92113 20.4412 4.15775 -143.017 19.6751 169.271 -152.173 57.8009 168.886 2.94766 3.49601 -25.4382 -105.813 61.0434 -88.9862 -12.1936 53.443 12.6145 6.50474 -0.235226 -2.31114 0.383068 -1.33969 30.5217 -101.519 -52.7409 75.5051 3.98157 -18.1786 15.0147 9.32039 -0.227541 -3.35822 -66.8687 4.27829 103.755 0.746882 17.8265 -15.0462 7.00725 11.1547 -0.831591 -6.64716 -25.8415 13.1346 -63.6516 1.98356 79.5867 1.81294 18.6993 6.08934 -6.31108 -4.56032 1.01094 2.06416 14.4516 -13.6591 
-2.97145 105.734 54.4011 -0.103122 -78.2428 -87.2415 -70.1915 0 88.8779 79.9391 71.7202 8.92534 4.98286 20.4688 4.12975 -142.966 19.726 169.206 -152.057 57.845 168.818 2.94686 3.45903 -25.4737 -106.486 61.0669 -88.6405 -12.3289 54.7065 12.9922 5.71107 -0.170753 -1.63428 0.387367 -1.36922 30.4214 -102.145 -52.7506 75.041 4.12447 -18.7372 14.9317 8.94713 -0.213519 -3.30245 -66.9107 4.29466 103.805 0.698587 17.7689 -14.975 7.0886 11.0281 -0.850301 -6.63852 -25.7815 12.74 -63.6714 1.88592 79.4905 1.90166 18.7127 6.18237 -6.3316 -4.61697 1.01355 1.83344 14.4798 -13.1872 
-3.01962 105.704 54.358 0.229098 -78.2373 -86.8589 -70.1915 0 88.8779 80.0079 71.6708 8.76865 5.01671 20.3971 4.19174 -142.975 19.5734 168.86 -151.318 57.5318 167.82 2.93905 3.50359 -25.3588 -106.343 61.3604 -89.4251 -11.6354 52.5935 12.3797 8.12742 -0.279791 -2.18876 0.381655 -1.33605 30.4043 -102.305 -52.7508 74.9799 4.406 -19.7097 14.9606 8.60029 -0.205718 -3.31709 -66.8342 4.44477 103.896 0.633728 17.805 -14.7731 7.28182 10.6915 -0.895004 -6.58694 -25.4537 12.3777 -63.6395 2.01594 79.5797 1.83649 18.7078 5.8369 -6.48368 -4.63618 1.02629 0.886825 14.5717 -11.2469 
-2.98626 105.704 54.3459 0.0771892 -78.1241 -87.0136 -70.1915 0 88.8779 79.935 71.6084 8.96215 4.92854 20.3971 4.06443 -142.813 19.571 168.767 -151.417 57.5873 168.058 2.92654 3.51505 -25.243 -106.052 61.3307 -89.5165 -11.9834 53.4789 12.6264 7.08999 -0.177896 -1.17928 0.366405 -1.24166 30.5369 -102.324 -52.7036 74.7844 4.43665 -19.4318 15.0836 8.4983 -0.190863 -3.14077 -66.8123 4.2113 103.604 0.818166 17.478 -14.1592 7.17172 10.2062 -0.876012 -6.52586 -25.0616 12.2457 -63.4801 1.98614 79.5567 1.83976 18.7699 6.01365 -6.46051 -4.63673 1.0244 1.11729 14.5707 -11.7271 
-2.97481 105.66 54.3341 -0.208404 -78.0729 -87.2351 -70.1915 0 88.8779 79.7606 71.6514 9.23647 4.97907 20.4603 4.10017 -142.796 19.5927 168.783 -151.321 57.6074 168.166 2.9247 3.39161 -25.3671 -106.096 61.2155 -89.5791 -11.9737 53.5614 12.6503 6.81492 -0.18801 -1.42693 0.377453 -1.30951 30.4559 -102.251 -52.7174 74.8555 4.40715 -19.3777 15.0746 8.56508 -0.194978 -3.17658 -66.8169 4.37267 103.747 0.669023 17.2872 -13.5969 7.46677 9.49088 -0.942655 -6.37474 -24.1764 11.4432 -63.3453 1.95685 79.444 1.96671 18.9422 6.08556 -6.4412 -4.61321 1.0225 1.16444 14.4851 -11.7865 
-2.9833 105.65 54.332 -0.226664 -78.0874 -87.1883 -70.1915 0 88.8779 79.9966 71.6174 9.06818 4.94397 20.4208 4.14624 -142.857 19.5369 168.955 -151.538 57.5521 168.191 2.93909 3.45187 -25.4176 -106.034 61.1826 -89.6373 -12.0194 53.6298 12.6698 7.74158 -0.231349 -1.69317 0.367876 -1.25532 30.4 -102.213 -52.6996 74.9358 4.30024 -19.4844 14.916 8.77182 -0.196134 -3.1208 -67.0043 4.56893 103.998 0.434883 16.8948 -13.2776 7.58859 8.74686 -0.971954 -6.18965 -23.1341 10.8566 -63.3029 2.12754 79.5823 1.80659 19.0116 5.87155 -6.32737 -4.80399 1.01626 0.993369 14.774 -11.562 
-2.93867 105.601 54.3014 0.0824203 -78.1042 -86.8697 -70.1915 0 88.8779 80.2431 71.5803 8.83815 4.94702 20.3944 4.15472 -142.885 19.5246 168.901 -151.365 57.511 168.081 2.93776 3.46354 -25.3935 -105.503 61.2332 -90.1297 -11.6989 52.001 12.2199 7.76343 -0.195045 -1.16651 0.365175 -1.24145 30.3434 -101.843 -52.7753 75.169 4.27418 -19.2401 15.0154 8.81352 -0.198435 -3.1384 -67.0579 4.40874 103.796 0.535182 16.6202 -12.5268 7.58866 7.77112 -0.977753 -5.99107 -22.0693 10.2522 -63.1685 1.99198 79.4214 1.899 19.3023 5.93723 -6.37629 -4.94815 1.02249 0.998987 14.8274 -11.5978 
-2.93324 105.55 54.2617 0.527139 -78.0739 -86.2914 -70.1915 0 88.8779 80.5005 71.5 8.6579 4.8672 20.3258 4.19289 -142.752 19.4893 168.755 -151.168 57.4668 168.016 2.92236 3.45211 -25.2792 -105.7 61.2987 -89.9413 -11.7737 52.468 12.3452 8.27949 -0.211181 -1.21133 0.363647 -1.22683 30.5009 -101.601 -52.6718 75.3241 4.25217 -19.2307 15.019 8.86003 -0.206972 -3.24172 -66.9913 4.46401 103.673 0.615913 16.4447 -11.6885 7.72322 6.80283 -1.00807 -5.75815 -21.0032 9.1992 -63.0111 2.08167 79.3935 1.92071 19.5385 5.75848 -6.51097 -5.05288 1.03469 0.878653 14.8178 -11.3431 
-2.93831 105.507 54.2511 0.33431 -78.0512 -86.3979 -70.1915 0 88.8779 80.5719 71.5018 8.66023 4.84322 20.3249 4.29639 -142.78 19.5149 168.871 -151.332 57.5039 168.068 2.92809 3.45586 -25.3224 -105.497 61.2716 -90.115 -11.8566 52.5764 12.3736 8.67222 -0.194402 -0.866272 0.357978 -1.19701 30.3981 -101.436 -52.6383 75.4822 4.1715 -19.2312 14.9411 8.56821 -0.200293 -3.25107 -67.0578 4.67505 103.867 0.413883 16.1717 -11.0405 7.85014 5.86783 -1.03407 -5.53472 -20.0408 8.27891 -62.8439 2.17247 79.405 1.90108 19.8106 5.78204 -6.52382 -5.12115 1.03672 1.12412 14.5545 -11.7342 
-2.92695 105.437 54.2614 -0.675293 -78.0097 -87.3051 -70.1915 0 88.8779 80.5337 71.5633 8.95455 4.89426 20.4439 4.18449 -142.804 19.4938 168.822 -151.116 57.4301 167.797 2.9193 3.40085 -25.3117 -105.63 61.2238 -90.0166 -11.7802 52.4667 12.3395 8.70885 -0.196187 -0.882622 0.362925 -1.22866 30.3303 -101.617 -52.7253 75.3243 4.2907 -19.4945 14.9901 8.72172 -0.213569 -3.3854 -67.1155 4.89816 104.07 0.27032 15.9018 -10.1211 8.06195 4.82075 -1.07307 -5.24174 -18.9495 6.96743 -62.6847 2.23808 79.3563 1.96999 20.0059 5.92619 -6.38071 -5.23774 1.02745 1.00259 14.818 -11.6012 
-2.9575 105.4 54.2202 -0.0222256 -78.0611 -86.5944 -70.1915 0 88.8779 80.9595 71.5418 8.45189 4.79595 20.391 4.30832 -142.751 19.4905 168.811 -151.238 57.4623 167.945 2.91802 3.3478 -25.3611 -105.936 61.1289 -89.9521 -11.9692 53.5133 12.645 8.35849 -0.233679 -1.47426 0.365039 -1.2376 30.4267 -101.679 -52.6147 75.2483 4.41519 -19.7332 15.0569 8.54589 -0.217803 -3.51256 -67.1646 4.91638 104.005 0.289027 15.6828 -9.48364 7.99504 3.89284 -1.06454 -4.95346 -17.8367 6.0846 -62.5762 2.34029 79.4232 1.87107 20.2861 5.60196 -6.42529 -5.35411 1.0327 0.988486 14.6078 -11.4756 
-2.9136 105.351 54.2068 -0.483968 -78.0042 -87.0054 -70.1915 0 88.8779 81.0156 71.5737 8.57073 4.76984 20.4558 4.28391 -142.791 19.5237 168.845 -151.26 57.4833 167.839 2.91316 3.26459 -25.4159 -105.719 61.0772 -90.1825 -11.8189 52.8507 12.4465 7.9453 -0.197508 -1.13968 0.367572 -1.25541 30.3495 -101.592 -52.665 75.3101 4.34006 -19.5606 15.0331 8.83449 -0.221154 -3.44816 -67.1752 4.91617 103.96 0.285333 15.3994 -8.55285 8.02465 3.02991 -1.07128 -4.664 -17.012 4.68192 -62.3371 2.29907 79.3378 1.94526 20.6247 5.76998 -6.3518 -5.42086 1.02824 0.999397 14.5323 -11.4635 
-2.8997 105.295 54.2664 -2.30461 -78.0916 -88.8254 -70.1915 0 88.8779 81.3231 71.7192 8.49747 4.77943 20.6727 4.07482 -142.596 19.5269 168.678 -150.95 57.4649 167.716 2.89839 3.23671 -25.3241 -105.31 61.0616 -90.4485 -11.6283 51.6983 12.122 7.86622 -0.175133 -0.854817 0.362788 -1.22383 30.4412 -101.518 -52.6059 75.368 4.26514 -19.5704 14.9467 8.89598 -0.215721 -3.3497 -67.5018 5.04977 104.195 0.0981365 15.0404 -7.61908 8.0653 2.30032 -1.07895 -4.38877 -16.0963 3.8743 -62.2142 2.35996 79.3774 1.85246 21.0452 6.05292 -6.35896 -5.65526 1.03255 0.89048 14.6931 -11.3107 
-2.91205 105.254 54.2436 -2.08875 -78.2157 -88.5841 -70.1915 0 88.8779 82.0342 71.733 7.74528 4.69523 20.6598 4.13957 -142.527 19.5838 168.596 -150.829 57.5274 167.74 2.88377 3.18137 -25.2645 -105.649 61.1231 -90.1719 -11.7746 52.5569 12.3635 7.71974 -0.179043 -0.955403 0.350665 -1.15197 30.4614 -101.758 -52.5225 75.2624 4.16627 -19.6693 14.756 8.86124 -0.207014 -3.24126 -67.6185 5.07206 104.189 0.096652 14.9152 -7.05752 8.0196 1.59496 -1.07428 -4.13862 -15.4123 2.90911 -62.1988 2.37108 79.3446 1.81396 21.3264 6.09627 -6.39627 -5.77657 1.03721 1.11641 14.4701 -11.6796 
-2.89513 105.206 54.1699 -1.03114 -78.1634 -87.4796 -70.1915 0 88.8779 82.3961 71.7012 7.3301 4.64604 20.5772 4.27689 -142.756 19.7146 168.675 -150.869 57.6526 167.756 2.90085 3.1496 -25.4453 -105.6 61.1088 -90.3456 -11.7558 52.5492 12.3673 8.00596 -0.183214 -0.928185 0.355664 -1.18248 30.427 -101.281 -52.5318 75.7113 3.98626 -19.1845 14.7387 8.97104 -0.223645 -3.43167 -67.3627 5.09434 104.115 0.106456 15.0609 -6.78573 7.99753 0.887031 -1.07336 -3.8706 -14.5999 2.18184 -62.0236 2.33792 79.3113 1.86136 21.5267 5.94118 -6.43001 -5.77578 1.03959 1.18504 14.394 -11.7884 
-2.91269 105.182 54.0869 -0.801601 -78.1586 -87.2227 -70.1915 0 88.8779 83.0724 71.7538 6.6514 4.55191 20.6035 4.33466 -142.933 19.709 168.923 -151.436 57.7231 168.181 2.90935 3.07409 -25.6051 -105.063 60.9564 -90.8829 -11.8049 52.2495 12.2853 8.30482 -0.163017 -0.568365 0.355575 -1.17733 30.5679 -101.244 -52.4202 75.7363 4.07785 -19.1646 14.8562 8.85422 -0.215776 -3.36727 -67.2063 5.08951 103.996 0.170454 15.1549 -6.38053 7.9164 0.456914 -1.06446 -3.71841 -14.2497 1.56936 -61.8347 2.3594 79.3136 1.8531 21.7903 5.84253 -6.5241 -5.86266 1.04773 1.10692 14.2688 -11.5671 
-2.91981 105.157 53.9848 -0.869462 -78.3186 -87.229 -70.1915 0 88.8779 84.7147 71.9175 4.97566 4.315 20.6674 4.56098 -143.088 19.7756 169.033 -151.616 57.8156 168.377 2.92408 3.00357 -25.8151 -105.436 60.8969 -90.7488 -11.9659 53.351 12.5896 7.83534 -0.187074 -1.03 0.358507 -1.1978 30.4629 -101.154 -52.4345 75.8238 4.07926 -18.9029 14.9487 8.58977 -0.219503 -3.51913 -67.2132 5.15168 103.984 0.235432 15.297 -6.15069 7.85916 0.226004 -1.05825 -3.6336 -14.152 1.03087 -61.7668 2.5071 79.4281 1.70152 22.0996 5.75873 -6.26005 -6.00415 1.03123 1.06124 14.4919 -11.5741 
-2.90151 105.107 53.7812 -1.26213 -78.3766 -87.6389 -70.1915 0 88.8779 86.9742 72.1124 2.66091 3.89232 20.7728 4.72877 -143.28 19.7455 168.903 -150.751 57.5984 167.61 2.95488 3.11764 -25.9392 -104.668 60.9038 -91.587 -11.8923 52.3854 12.3214 8.20321 -0.190023 -0.956375 0.369674 -1.27025 30.2891 -101.233 -52.5824 75.8661 4.08041 -18.9254 14.9348 8.60733 -0.212215 -3.40828 -66.8468 5.14421 103.882 0.328529 15.8831 -5.88566 7.86912 0.0302494 -1.06026 -3.59032 -13.9823 1.0206 -61.5332 2.52295 79.4925 1.64697 22.3879 5.79507 -6.20689 -5.82825 1.02452 1.21368 14.0948 -11.7113 
-2.84858 105.07 53.485 -2.48384 -78.2283 -88.9454 -70.1915 0 88.8779 89.3951 72.3359 0.374822 3.43425 21.0275 4.56015 -143.478 19.8667 168.651 -150.793 57.7809 167.82 2.95107 3.02494 -26.0183 -104.887 60.7703 -91.329 -12.0539 53.1563 12.5336 7.73325 -0.200889 -1.25481 0.378222 -1.31831 30.341 -101.049 -52.6037 76.1818 4.01041 -18.9282 14.8691 8.64919 -0.202781 -3.25806 -66.0922 4.87206 103.406 0.664633 16.7173 -5.37556 7.73125 -0.00654987 -1.04385 -3.67301 -14.2549 1.15515 -60.799 2.42583 79.5825 1.56137 23.1328 6.04584 -6.40899 -5.81562 1.0387 1.33267 13.6224 -11.7454 
-2.80839 104.953 53.0506 -2.86993 -77.8691 -89.425 -70.1915 0 88.8779 92.0004 72.5429 -2.27466 2.94366 21.1834 4.74816 -144.363 20.1129 168.979 -150.741 57.9413 167.692 2.99231 2.98149 -26.4233 -103.563 60.5552 -92.5423 -11.8981 51.1865 12.0082 8.55319 -0.232496 -1.39021 0.392095 -1.40967 30.1428 -100.378 -52.7478 76.9391 4.11885 -19.2375 14.9966 8.71492 -0.199645 -3.19063 -64.5329 4.55385 102.655 1.14929 18.5036 -4.96191 7.59617 -0.107932 -1.02821 -3.85758 -14.8345 1.53221 -59.5381 2.44098 79.8778 1.382 24.2123 5.92759 -6.56467 -5.55689 1.04626 1.79818 12.4795 -12.205 
